<svg aria-roledescription="er" role="graphics-document document" viewBox="0 0 207.618408203125 814" style="max-width: 3840px; background-color: white; max-height: 3840px;" xmlns:xlink="http://www.w3.org/1999/xlink" xmlns="http://www.w3.org/2000/svg" width="100%" id="my-svg"><style>#my-svg{font-family:"trebuchet ms",verdana,arial,sans-serif;font-size:14px;fill:#333;}#my-svg .error-icon{fill:#ffffff;}#my-svg .error-text{fill:#000000;stroke:#000000;}#my-svg .edge-thickness-normal{stroke-width:1px;}#my-svg .edge-thickness-thick{stroke-width:3.5px;}#my-svg .edge-pattern-solid{stroke-dasharray:0;}#my-svg .edge-thickness-invisible{stroke-width:0;fill:none;}#my-svg .edge-pattern-dashed{stroke-dasharray:3;}#my-svg .edge-pattern-dotted{stroke-dasharray:2;}#my-svg .marker{fill:#000000;stroke:#000000;}#my-svg .marker.cross{stroke:#000000;}#my-svg svg{font-family:"trebuchet ms",verdana,arial,sans-serif;font-size:14px;}#my-svg p{margin:0;}#my-svg .entityBox{fill:#ffffff;stroke:#000000;}#my-svg .attributeBoxOdd{fill:#ffffff;stroke:#000000;}#my-svg .attributeBoxEven{fill:#f2f2f2;stroke:#000000;}#my-svg .relationshipLabelBox{fill:#ffffff;opacity:0.7;background-color:#ffffff;}#my-svg .relationshipLabelBox rect{opacity:0.5;}#my-svg .relationshipLine{stroke:#000000;}#my-svg .entityTitleText{text-anchor:middle;font-size:18px;fill:#333;}#my-svg #MD_PARENT_START{fill:#f5f5f5!important;stroke:#000000!important;stroke-width:1;}#my-svg #MD_PARENT_END{fill:#f5f5f5!important;stroke:#000000!important;stroke-width:1;}#my-svg .node .neo-node{stroke:#000000;}#my-svg [data-look="neo"].node rect,#my-svg [data-look="neo"].cluster rect,#my-svg [data-look="neo"].node polygon{stroke:url(#my-svg-gradient);filter:drop-shadow( 0px 1px 2px rgba(0, 0, 0, 0.25));}#my-svg [data-look="neo"].node rect,#my-svg [data-look="neo"].node polygon,#my-svg [data-look="neo"].node path{stroke:url(#my-svg-gradient);filter:drop-shadow( 0px 1px 2px rgba(0, 0, 0, 0.25));}#my-svg [data-look="neo"].node .neo-line path{stroke:hsl(0, 0%, 70%);filter:none;}#my-svg [data-look="neo"].node circle{stroke:url(#my-svg-gradient);filter:drop-shadow( 0px 1px 2px rgba(0, 0, 0, 0.25));}#my-svg [data-look="neo"].node circle .state-start{fill:#000000;}#my-svg [data-look="neo"].statediagram-cluster rect{fill:#ffffff;stroke:url(#my-svg-gradient);stroke-width:1px;}#my-svg [data-look="neo"].icon-shape .icon{fill:url(#my-svg-gradient);filter:drop-shadow( 0px 1px 2px rgba(0, 0, 0, 0.25));}#my-svg [data-look="neo"].icon-shape .icon-neo path{stroke:url(#my-svg-gradient);filter:drop-shadow( 0px 1px 2px rgba(0, 0, 0, 0.25));}#my-svg :root{--mermaid-font-family:"trebuchet ms",verdana,arial,sans-serif;}</style><g/><defs><marker orient="auto" markerHeight="240" markerWidth="190" refY="7" refX="0" id="MD_PARENT_START"><path d="M 18,7 L9,13 L1,7 L9,1 Z"/></marker></defs><defs><marker orient="auto" markerHeight="28" markerWidth="20" refY="7" refX="19" id="MD_PARENT_END"><path d="M 18,7 L9,13 L1,7 L9,1 Z"/></marker></defs><defs><marker orient="auto" markerHeight="18" markerWidth="18" refY="9" refX="0" id="ONLY_ONE_START"><path d="M9,0 L9,18 M15,0 L15,18" fill="none" stroke="gray"/></marker></defs><defs><marker orient="auto" markerHeight="18" markerWidth="18" refY="9" refX="18" id="ONLY_ONE_END"><path d="M3,0 L3,18 M9,0 L9,18" fill="none" stroke="gray"/></marker></defs><defs><marker orient="auto" markerHeight="18" markerWidth="30" refY="9" refX="0" id="ZERO_OR_ONE_START"><circle r="6" cy="9" cx="21" fill="white" stroke="gray"/><path d="M9,0 L9,18" fill="none" stroke="gray"/></marker></defs><defs><marker orient="auto" markerHeight="18" markerWidth="30" refY="9" refX="30" id="ZERO_OR_ONE_END"><circle r="6" cy="9" cx="9" fill="white" stroke="gray"/><path d="M21,0 L21,18" fill="none" stroke="gray"/></marker></defs><defs><marker orient="auto" markerHeight="36" markerWidth="45" refY="18" refX="18" id="ONE_OR_MORE_START"><path d="M0,18 Q 18,0 36,18 Q 18,36 0,18 M42,9 L42,27" fill="none" stroke="gray"/></marker></defs><defs><marker orient="auto" markerHeight="36" markerWidth="45" refY="18" refX="27" id="ONE_OR_MORE_END"><path d="M3,9 L3,27 M9,18 Q27,0 45,18 Q27,36 9,18" fill="none" stroke="gray"/></marker></defs><defs><marker orient="auto" markerHeight="36" markerWidth="57" refY="18" refX="18" id="ZERO_OR_MORE_START"><circle r="6" cy="18" cx="48" fill="white" stroke="gray"/><path d="M0,18 Q18,0 36,18 Q18,36 0,18" fill="none" stroke="gray"/></marker></defs><defs><marker orient="auto" markerHeight="36" markerWidth="57" refY="18" refX="39" id="ZERO_OR_MORE_END"><circle r="6" cy="18" cx="9" fill="white" stroke="gray"/><path d="M21,18 Q39,0 57,18 Q39,36 21,18" fill="none" stroke="gray"/></marker></defs><path style="stroke: gray; fill: none;" marker-start="url(#ONLY_ONE_START)" marker-end="url(#ZERO_OR_MORE_END)" d="M103.809,149L103.809,157.333C103.809,165.667,103.809,182.333,103.809,199C103.809,215.667,103.809,232.333,103.809,240.667L103.809,249" class="er relationshipLine"/><path style="stroke: gray; fill: none;" marker-start="url(#ZERO_OR_MORE_START)" marker-end="url(#ONLY_ONE_END)" d="M103.809,357L103.809,365.333C103.809,373.667,103.809,390.333,103.809,407C103.809,423.667,103.809,440.333,103.809,448.667L103.809,457" class="er relationshipLine"/><path style="stroke: gray; fill: none;" marker-start="url(#ZERO_OR_MORE_START)" marker-end="url(#ONLY_ONE_END)" d="M103.809,586L103.809,594.333C103.809,602.667,103.809,619.333,103.809,636C103.809,652.667,103.809,669.333,103.809,677.667L103.809,686" class="er relationshipLine"/><g transform="translate(24.981781005859375,20 )" id="entity-Customers-48148838-81fb-5789-a690-6fddcc107b53"><rect height="129" width="157.65484619140625" y="0" x="0" class="er entityBox"/><text style="dominant-baseline: middle; text-anchor: middle; font-size: 12px;" transform="translate(78.82742309570312,12)" y="0" x="0" id="text-entity-Customers-48148838-81fb-5789-a690-6fddcc107b53" class="er entityLabel">Customers</text><rect height="21" width="68.35986328125" y="24" x="0" class="er attributeBoxOdd"/><text style="dominant-baseline: middle; font-size: 10.2px;" transform="translate(5,34.5)" y="0" x="0" id="text-entity-Customers-48148838-81fb-5789-a690-6fddcc107b53-attr-1-type" class="er entityLabel">bigint</text><rect height="21" width="65.5" y="24" x="68.35986328125" class="er attributeBoxOdd"/><text style="dominant-baseline: middle; font-size: 10.2px;" transform="translate(73.35986328125,34.5)" y="0" x="0" id="text-entity-Customers-48148838-81fb-5789-a690-6fddcc107b53-attr-1-name" class="er entityLabel">customer_id</text><rect height="21" width="23.79498291015625" y="24" x="133.85986328125" class="er attributeBoxOdd"/><text style="dominant-baseline: middle; font-size: 10.2px;" transform="translate(138.85986328125,34.5)" y="0" x="0" id="text-entity-Customers-48148838-81fb-5789-a690-6fddcc107b53-attr-1-key" class="er entityLabel">PK</text><rect height="21" width="68.35986328125" y="45" x="0" class="er attributeBoxEven"/><text style="dominant-baseline: middle; font-size: 10.2px;" transform="translate(5,55.5)" y="0" x="0" id="text-entity-Customers-48148838-81fb-5789-a690-6fddcc107b53-attr-2-type" class="er entityLabel">varchar(255)</text><rect height="21" width="65.5" y="45" x="68.35986328125" class="er attributeBoxEven"/><text style="dominant-baseline: middle; font-size: 10.2px;" transform="translate(73.35986328125,55.5)" y="0" x="0" id="text-entity-Customers-48148838-81fb-5789-a690-6fddcc107b53-attr-2-name" class="er entityLabel">first_name</text><rect height="21" width="23.79498291015625" y="45" x="133.85986328125" class="er attributeBoxEven"/><text style="dominant-baseline: middle; font-size: 10.2px;" transform="translate(138.85986328125,55.5)" y="0" x="0" id="text-entity-Customers-48148838-81fb-5789-a690-6fddcc107b53-attr-2-key" class="er entityLabel"/><rect height="21" width="68.35986328125" y="66" x="0" class="er attributeBoxOdd"/><text style="dominant-baseline: middle; font-size: 10.2px;" transform="translate(5,76.5)" y="0" x="0" id="text-entity-Customers-48148838-81fb-5789-a690-6fddcc107b53-attr-3-type" class="er entityLabel">varchar(255)</text><rect height="21" width="65.5" y="66" x="68.35986328125" class="er attributeBoxOdd"/><text style="dominant-baseline: middle; font-size: 10.2px;" transform="translate(73.35986328125,76.5)" y="0" x="0" id="text-entity-Customers-48148838-81fb-5789-a690-6fddcc107b53-attr-3-name" class="er entityLabel">last_name</text><rect height="21" width="23.79498291015625" y="66" x="133.85986328125" class="er attributeBoxOdd"/><text style="dominant-baseline: middle; font-size: 10.2px;" transform="translate(138.85986328125,76.5)" y="0" x="0" id="text-entity-Customers-48148838-81fb-5789-a690-6fddcc107b53-attr-3-key" class="er entityLabel"/><rect height="21" width="68.35986328125" y="87" x="0" class="er attributeBoxEven"/><text style="dominant-baseline: middle; font-size: 10.2px;" transform="translate(5,97.5)" y="0" x="0" id="text-entity-Customers-48148838-81fb-5789-a690-6fddcc107b53-attr-4-type" class="er entityLabel">varchar(255)</text><rect height="21" width="65.5" y="87" x="68.35986328125" class="er attributeBoxEven"/><text style="dominant-baseline: middle; font-size: 10.2px;" transform="translate(73.35986328125,97.5)" y="0" x="0" id="text-entity-Customers-48148838-81fb-5789-a690-6fddcc107b53-attr-4-name" class="er entityLabel">email</text><rect height="21" width="23.79498291015625" y="87" x="133.85986328125" class="er attributeBoxEven"/><text style="dominant-baseline: middle; font-size: 10.2px;" transform="translate(138.85986328125,97.5)" y="0" x="0" id="text-entity-Customers-48148838-81fb-5789-a690-6fddcc107b53-attr-4-key" class="er entityLabel"/><rect height="21" width="68.35986328125" y="108" x="0" class="er attributeBoxOdd"/><text style="dominant-baseline: middle; font-size: 10.2px;" transform="translate(5,118.5)" y="0" x="0" id="text-entity-Customers-48148838-81fb-5789-a690-6fddcc107b53-attr-5-type" class="er entityLabel">varchar(255)</text><rect height="21" width="65.5" y="108" x="68.35986328125" class="er attributeBoxOdd"/><text style="dominant-baseline: middle; font-size: 10.2px;" transform="translate(73.35986328125,118.5)" y="0" x="0" id="text-entity-Customers-48148838-81fb-5789-a690-6fddcc107b53-attr-5-name" class="er entityLabel">phone</text><rect height="21" width="23.79498291015625" y="108" x="133.85986328125" class="er attributeBoxOdd"/><text style="dominant-baseline: middle; font-size: 10.2px;" transform="translate(138.85986328125,118.5)" y="0" x="0" id="text-entity-Customers-48148838-81fb-5789-a690-6fddcc107b53-attr-5-key" class="er entityLabel"/></g><g transform="translate(34.821502685546875,249 )" id="entity-Orders-a7fbdabd-c6b5-58e0-a795-7630f285f18b"><rect height="108" width="137.97540283203125" y="0" x="0" class="er entityBox"/><text style="dominant-baseline: middle; text-anchor: middle; font-size: 12px;" transform="translate(68.98770141601562,12)" y="0" x="0" id="text-entity-Orders-a7fbdabd-c6b5-58e0-a795-7630f285f18b" class="er entityLabel">Orders</text><rect height="21" width="45.109375" y="24" x="0" class="er attributeBoxOdd"/><text style="dominant-baseline: middle; font-size: 10.2px;" transform="translate(5,34.5)" y="0" x="0" id="text-entity-Orders-a7fbdabd-c6b5-58e0-a795-7630f285f18b-attr-1-type" class="er entityLabel">bigint</text><rect height="21" width="69.071044921875" y="24" x="45.109375" class="er attributeBoxOdd"/><text style="dominant-baseline: middle; font-size: 10.2px;" transform="translate(50.109375,34.5)" y="0" x="0" id="text-entity-Orders-a7fbdabd-c6b5-58e0-a795-7630f285f18b-attr-1-name" class="er entityLabel">order_id</text><rect height="21" width="23.79498291015625" y="24" x="114.180419921875" class="er attributeBoxOdd"/><text style="dominant-baseline: middle; font-size: 10.2px;" transform="translate(119.180419921875,34.5)" y="0" x="0" id="text-entity-Orders-a7fbdabd-c6b5-58e0-a795-7630f285f18b-attr-1-key" class="er entityLabel">PK</text><rect height="21" width="45.109375" y="45" x="0" class="er attributeBoxEven"/><text style="dominant-baseline: middle; font-size: 10.2px;" transform="translate(5,55.5)" y="0" x="0" id="text-entity-Orders-a7fbdabd-c6b5-58e0-a795-7630f285f18b-attr-2-type" class="er entityLabel">bigint</text><rect height="21" width="69.071044921875" y="45" x="45.109375" class="er attributeBoxEven"/><text style="dominant-baseline: middle; font-size: 10.2px;" transform="translate(50.109375,55.5)" y="0" x="0" id="text-entity-Orders-a7fbdabd-c6b5-58e0-a795-7630f285f18b-attr-2-name" class="er entityLabel">customer_id</text><rect height="21" width="23.79498291015625" y="45" x="114.180419921875" class="er attributeBoxEven"/><text style="dominant-baseline: middle; font-size: 10.2px;" transform="translate(119.180419921875,55.5)" y="0" x="0" id="text-entity-Orders-a7fbdabd-c6b5-58e0-a795-7630f285f18b-attr-2-key" class="er entityLabel">FK</text><rect height="21" width="45.109375" y="66" x="0" class="er attributeBoxOdd"/><text style="dominant-baseline: middle; font-size: 10.2px;" transform="translate(5,76.5)" y="0" x="0" id="text-entity-Orders-a7fbdabd-c6b5-58e0-a795-7630f285f18b-attr-3-type" class="er entityLabel">date</text><rect height="21" width="69.071044921875" y="66" x="45.109375" class="er attributeBoxOdd"/><text style="dominant-baseline: middle; font-size: 10.2px;" transform="translate(50.109375,76.5)" y="0" x="0" id="text-entity-Orders-a7fbdabd-c6b5-58e0-a795-7630f285f18b-attr-3-name" class="er entityLabel">order_date</text><rect height="21" width="23.79498291015625" y="66" x="114.180419921875" class="er attributeBoxOdd"/><text style="dominant-baseline: middle; font-size: 10.2px;" transform="translate(119.180419921875,76.5)" y="0" x="0" id="text-entity-Orders-a7fbdabd-c6b5-58e0-a795-7630f285f18b-attr-3-key" class="er entityLabel"/><rect height="21" width="45.109375" y="87" x="0" class="er attributeBoxEven"/><text style="dominant-baseline: middle; font-size: 10.2px;" transform="translate(5,97.5)" y="0" x="0" id="text-entity-Orders-a7fbdabd-c6b5-58e0-a795-7630f285f18b-attr-4-type" class="er entityLabel">decimal</text><rect height="21" width="69.071044921875" y="87" x="45.109375" class="er attributeBoxEven"/><text style="dominant-baseline: middle; font-size: 10.2px;" transform="translate(50.109375,97.5)" y="0" x="0" id="text-entity-Orders-a7fbdabd-c6b5-58e0-a795-7630f285f18b-attr-4-name" class="er entityLabel">total_amount</text><rect height="21" width="23.79498291015625" y="87" x="114.180419921875" class="er attributeBoxEven"/><text style="dominant-baseline: middle; font-size: 10.2px;" transform="translate(119.180419921875,97.5)" y="0" x="0" id="text-entity-Orders-a7fbdabd-c6b5-58e0-a795-7630f285f18b-attr-4-key" class="er entityLabel"/></g><g transform="translate(33.208587646484375,457 )" id="entity-OrderItems-934b7914-ebc5-56f1-b4ee-7383ee4eae7d"><rect height="129" width="141.20123291015625" y="0" x="0" class="er entityBox"/><text style="dominant-baseline: middle; text-anchor: middle; font-size: 12px;" transform="translate(70.60061645507812,12)" y="0" x="0" id="text-entity-OrderItems-934b7914-ebc5-56f1-b4ee-7383ee4eae7d" class="er entityLabel">Order_Items</text><rect height="21" width="45.109375" y="24" x="0" class="er attributeBoxOdd"/><text style="dominant-baseline: middle; font-size: 10.2px;" transform="translate(5,34.5)" y="0" x="0" id="text-entity-OrderItems-934b7914-ebc5-56f1-b4ee-7383ee4eae7d-attr-1-type" class="er entityLabel">bigint</text><rect height="21" width="72.296875" y="24" x="45.109375" class="er attributeBoxOdd"/><text style="dominant-baseline: middle; font-size: 10.2px;" transform="translate(50.109375,34.5)" y="0" x="0" id="text-entity-OrderItems-934b7914-ebc5-56f1-b4ee-7383ee4eae7d-attr-1-name" class="er entityLabel">order_item_id</text><rect height="21" width="23.79498291015625" y="24" x="117.40625" class="er attributeBoxOdd"/><text style="dominant-baseline: middle; font-size: 10.2px;" transform="translate(122.40625,34.5)" y="0" x="0" id="text-entity-OrderItems-934b7914-ebc5-56f1-b4ee-7383ee4eae7d-attr-1-key" class="er entityLabel">PK</text><rect height="21" width="45.109375" y="45" x="0" class="er attributeBoxEven"/><text style="dominant-baseline: middle; font-size: 10.2px;" transform="translate(5,55.5)" y="0" x="0" id="text-entity-OrderItems-934b7914-ebc5-56f1-b4ee-7383ee4eae7d-attr-2-type" class="er entityLabel">bigint</text><rect height="21" width="72.296875" y="45" x="45.109375" class="er attributeBoxEven"/><text style="dominant-baseline: middle; font-size: 10.2px;" transform="translate(50.109375,55.5)" y="0" x="0" id="text-entity-OrderItems-934b7914-ebc5-56f1-b4ee-7383ee4eae7d-attr-2-name" class="er entityLabel">order_id</text><rect height="21" width="23.79498291015625" y="45" x="117.40625" class="er attributeBoxEven"/><text style="dominant-baseline: middle; font-size: 10.2px;" transform="translate(122.40625,55.5)" y="0" x="0" id="text-entity-OrderItems-934b7914-ebc5-56f1-b4ee-7383ee4eae7d-attr-2-key" class="er entityLabel">FK</text><rect height="21" width="45.109375" y="66" x="0" class="er attributeBoxOdd"/><text style="dominant-baseline: middle; font-size: 10.2px;" transform="translate(5,76.5)" y="0" x="0" id="text-entity-OrderItems-934b7914-ebc5-56f1-b4ee-7383ee4eae7d-attr-3-type" class="er entityLabel">bigint</text><rect height="21" width="72.296875" y="66" x="45.109375" class="er attributeBoxOdd"/><text style="dominant-baseline: middle; font-size: 10.2px;" transform="translate(50.109375,76.5)" y="0" x="0" id="text-entity-OrderItems-934b7914-ebc5-56f1-b4ee-7383ee4eae7d-attr-3-name" class="er entityLabel">product_id</text><rect height="21" width="23.79498291015625" y="66" x="117.40625" class="er attributeBoxOdd"/><text style="dominant-baseline: middle; font-size: 10.2px;" transform="translate(122.40625,76.5)" y="0" x="0" id="text-entity-OrderItems-934b7914-ebc5-56f1-b4ee-7383ee4eae7d-attr-3-key" class="er entityLabel">FK</text><rect height="21" width="45.109375" y="87" x="0" class="er attributeBoxEven"/><text style="dominant-baseline: middle; font-size: 10.2px;" transform="translate(5,97.5)" y="0" x="0" id="text-entity-OrderItems-934b7914-ebc5-56f1-b4ee-7383ee4eae7d-attr-4-type" class="er entityLabel">int</text><rect height="21" width="72.296875" y="87" x="45.109375" class="er attributeBoxEven"/><text style="dominant-baseline: middle; font-size: 10.2px;" transform="translate(50.109375,97.5)" y="0" x="0" id="text-entity-OrderItems-934b7914-ebc5-56f1-b4ee-7383ee4eae7d-attr-4-name" class="er entityLabel">quantity</text><rect height="21" width="23.79498291015625" y="87" x="117.40625" class="er attributeBoxEven"/><text style="dominant-baseline: middle; font-size: 10.2px;" transform="translate(122.40625,97.5)" y="0" x="0" id="text-entity-OrderItems-934b7914-ebc5-56f1-b4ee-7383ee4eae7d-attr-4-key" class="er entityLabel"/><rect height="21" width="45.109375" y="108" x="0" class="er attributeBoxOdd"/><text style="dominant-baseline: middle; font-size: 10.2px;" transform="translate(5,118.5)" y="0" x="0" id="text-entity-OrderItems-934b7914-ebc5-56f1-b4ee-7383ee4eae7d-attr-5-type" class="er entityLabel">decimal</text><rect height="21" width="72.296875" y="108" x="45.109375" class="er attributeBoxOdd"/><text style="dominant-baseline: middle; font-size: 10.2px;" transform="translate(50.109375,118.5)" y="0" x="0" id="text-entity-OrderItems-934b7914-ebc5-56f1-b4ee-7383ee4eae7d-attr-5-name" class="er entityLabel">unit_price</text><rect height="21" width="23.79498291015625" y="108" x="117.40625" class="er attributeBoxOdd"/><text style="dominant-baseline: middle; font-size: 10.2px;" transform="translate(122.40625,118.5)" y="0" x="0" id="text-entity-OrderItems-934b7914-ebc5-56f1-b4ee-7383ee4eae7d-attr-5-key" class="er entityLabel"/></g><g transform="translate(20,686 )" id="entity-Products-98ffa662-15bf-50a5-93cc-5742214cbd1a"><rect height="108" width="167.618408203125" y="0" x="0" class="er entityBox"/><text style="dominant-baseline: middle; text-anchor: middle; font-size: 12px;" transform="translate(83.8092041015625,12)" y="0" x="0" id="text-entity-Products-98ffa662-15bf-50a5-93cc-5742214cbd1a" class="er entityLabel">Products</text><rect height="21" width="68.35986328125" y="24" x="0" class="er attributeBoxOdd"/><text style="dominant-baseline: middle; font-size: 10.2px;" transform="translate(5,34.5)" y="0" x="0" id="text-entity-Products-98ffa662-15bf-50a5-93cc-5742214cbd1a-attr-1-type" class="er entityLabel">bigint</text><rect height="21" width="75.46356201171875" y="24" x="68.35986328125" class="er attributeBoxOdd"/><text style="dominant-baseline: middle; font-size: 10.2px;" transform="translate(73.35986328125,34.5)" y="0" x="0" id="text-entity-Products-98ffa662-15bf-50a5-93cc-5742214cbd1a-attr-1-name" class="er entityLabel">product_id</text><rect height="21" width="23.79498291015625" y="24" x="143.82342529296875" class="er attributeBoxOdd"/><text style="dominant-baseline: middle; font-size: 10.2px;" transform="translate(148.82342529296875,34.5)" y="0" x="0" id="text-entity-Products-98ffa662-15bf-50a5-93cc-5742214cbd1a-attr-1-key" class="er entityLabel">PK</text><rect height="21" width="68.35986328125" y="45" x="0" class="er attributeBoxEven"/><text style="dominant-baseline: middle; font-size: 10.2px;" transform="translate(5,55.5)" y="0" x="0" id="text-entity-Products-98ffa662-15bf-50a5-93cc-5742214cbd1a-attr-2-type" class="er entityLabel">varchar(255)</text><rect height="21" width="75.46356201171875" y="45" x="68.35986328125" class="er attributeBoxEven"/><text style="dominant-baseline: middle; font-size: 10.2px;" transform="translate(73.35986328125,55.5)" y="0" x="0" id="text-entity-Products-98ffa662-15bf-50a5-93cc-5742214cbd1a-attr-2-name" class="er entityLabel">product_name</text><rect height="21" width="23.79498291015625" y="45" x="143.82342529296875" class="er attributeBoxEven"/><text style="dominant-baseline: middle; font-size: 10.2px;" transform="translate(148.82342529296875,55.5)" y="0" x="0" id="text-entity-Products-98ffa662-15bf-50a5-93cc-5742214cbd1a-attr-2-key" class="er entityLabel"/><rect height="21" width="68.35986328125" y="66" x="0" class="er attributeBoxOdd"/><text style="dominant-baseline: middle; font-size: 10.2px;" transform="translate(5,76.5)" y="0" x="0" id="text-entity-Products-98ffa662-15bf-50a5-93cc-5742214cbd1a-attr-3-type" class="er entityLabel">varchar(255)</text><rect height="21" width="75.46356201171875" y="66" x="68.35986328125" class="er attributeBoxOdd"/><text style="dominant-baseline: middle; font-size: 10.2px;" transform="translate(73.35986328125,76.5)" y="0" x="0" id="text-entity-Products-98ffa662-15bf-50a5-93cc-5742214cbd1a-attr-3-name" class="er entityLabel">category</text><rect height="21" width="23.79498291015625" y="66" x="143.82342529296875" class="er attributeBoxOdd"/><text style="dominant-baseline: middle; font-size: 10.2px;" transform="translate(148.82342529296875,76.5)" y="0" x="0" id="text-entity-Products-98ffa662-15bf-50a5-93cc-5742214cbd1a-attr-3-key" class="er entityLabel"/><rect height="21" width="68.35986328125" y="87" x="0" class="er attributeBoxEven"/><text style="dominant-baseline: middle; font-size: 10.2px;" transform="translate(5,97.5)" y="0" x="0" id="text-entity-Products-98ffa662-15bf-50a5-93cc-5742214cbd1a-attr-4-type" class="er entityLabel">decimal</text><rect height="21" width="75.46356201171875" y="87" x="68.35986328125" class="er attributeBoxEven"/><text style="dominant-baseline: middle; font-size: 10.2px;" transform="translate(73.35986328125,97.5)" y="0" x="0" id="text-entity-Products-98ffa662-15bf-50a5-93cc-5742214cbd1a-attr-4-name" class="er entityLabel">price</text><rect height="21" width="23.79498291015625" y="87" x="143.82342529296875" class="er attributeBoxEven"/><text style="dominant-baseline: middle; font-size: 10.2px;" transform="translate(148.82342529296875,97.5)" y="0" x="0" id="text-entity-Products-98ffa662-15bf-50a5-93cc-5742214cbd1a-attr-4-key" class="er entityLabel"/></g><rect height="14" width="34.6875" y="192" x="86.46524810791016" class="er relationshipLabelBox"/><text style="text-anchor: middle; dominant-baseline: middle; font-size: 12px;" y="199" x="103.80899810791016" id="rel1" class="er relationshipLabel">places</text><rect height="14" width="44.703125" y="400" x="81.45743560791016" class="er relationshipLabelBox"/><text style="text-anchor: middle; dominant-baseline: middle; font-size: 12px;" y="407" x="103.80899810791016" id="rel2" class="er relationshipLabel">contains</text><rect height="14" width="44.03125" y="629" x="81.79337310791016" class="er relationshipLabelBox"/><text style="text-anchor: middle; dominant-baseline: middle; font-size: 12px;" y="636" x="103.80899810791016" id="rel3" class="er relationshipLabel">includes</text><style>svg span {
  font-family: 'Arial' !important;
}

svg {
  font-family: 'Arial' !important;
  -webkit-user-select: none;
  -moz-user-select: none;
  -ms-user-select: none;
  user-select: none;
}
</style></svg>